<svg width="20" height="20" viewBox="0 0 20 20" fill="none" xmlns="http://www.w3.org/2000/svg">
<path d="M10.0003 18.3307C14.6027 18.3307 18.3337 14.5997 18.3337 9.99739C18.3337 5.39502 14.6027 1.66406 10.0003 1.66406C5.39795 1.66406 1.66699 5.39502 1.66699 9.99739C1.66699 11.1465 1.89955 12.2412 2.32018 13.2371C2.55264 13.7875 2.66888 14.0627 2.68327 14.2707C2.69766 14.4787 2.63644 14.7075 2.51401 15.1651L1.66699 18.3307L4.83263 17.4837C5.29022 17.3613 5.51902 17.3001 5.72701 17.3145C5.935 17.3288 6.2102 17.4451 6.76062 17.6776C7.75653 18.0981 8.85124 18.3307 10.0003 18.3307Z" stroke="#011627" stroke-width="1.5" stroke-linejoin="round"/>
<path d="M7.15647 10.317L7.88225 9.4156C8.18814 9.03569 8.56626 8.68202 8.59592 8.17615C8.60334 8.04839 8.51351 7.47475 8.33367 6.32749C8.26302 5.87661 7.84206 5.83594 7.47744 5.83594C7.00229 5.83594 6.76472 5.83594 6.5288 5.9437C6.23062 6.0799 5.9245 6.46286 5.85732 6.78371C5.80417 7.03757 5.84367 7.2125 5.92267 7.56235C6.2582 9.04827 7.04535 10.5158 8.26591 11.7364C9.48651 12.9569 10.954 13.7441 12.4399 14.0796C12.7898 14.1586 12.9647 14.1981 13.2186 14.1449C13.5394 14.0778 13.9223 13.7717 14.0586 13.4734C14.1663 13.2375 14.1663 13 14.1663 12.5249C14.1663 12.1602 14.1257 11.7393 13.6748 11.6686C12.5275 11.4888 11.9539 11.3989 11.8261 11.4064C11.3203 11.436 10.9666 11.8141 10.5867 12.12L9.68526 12.8458" stroke="#011627" stroke-width="1.5"/>
</svg>
